<svg version="1.2" xmlns="http://www.w3.org/2000/svg" viewBox="0 0 1100 1100" width="1100" height="1100">
	<title>JMPLMascot</title>
	<style>
		.s0 { fill: #dfac04 } 
		.s1 { fill: #f5d000 } 
		.s2 { fill: #ffffff } 
	</style>
	<path id="EarR" fill-rule="evenodd" class="s0" d="m978.3 308.6l-235.2-166 261.4-120.7z"/>
	<path id="EarL" fill-rule="evenodd" class="s1" d="m123.3 308.6l235.2-166-261.4-120.7z"/>
	<path id="Body copy" fill-rule="evenodd" class="s0" d="m550 66c279.8 0 506 226.2 506 506 0 279.8-226.2 506-506 506-279.8 0-506-226.2-506-506 0-279.8 226.2-506 506-506z"/>
	<path id="Body" fill-rule="evenodd" class="s1" d="m509.2 66c257.3 0 465.3 208 465.3 465.2 0 257.3-208 465.3-465.3 465.3-257.2 0-465.2-208-465.2-465.3 0-257.2 208-465.2 465.2-465.2z"/>
	<path id="EyeR copy" class="s0" d="m800.8 386c79.5 0 143.7 64.3 143.7 143.8 0 79.5-64.2 143.7-143.7 143.7-79.5 0-143.8-64.2-143.8-143.7 0-79.5 64.3-143.8 143.8-143.8zm0 0c79.5 0 143.7 64.3 143.7 143.8 0 79.5-64.2 143.7-143.7 143.7-79.5 0-143.8-64.2-143.8-143.7 0-79.5 64.3-143.8 143.8-143.8zm0 0c79.5 0 143.7 64.3 143.7 143.8 0 79.5-64.2 143.7-143.7 143.7-79.5 0-143.8-64.2-143.8-143.7 0-79.5 64.3-143.8 143.8-143.8z"/>
	<path id="EyeR" class="s2" d="m775.9 386c68.6 0 124.1 55.5 124.1 124.1 0 68.6-55.5 124.1-124.1 124.1-68.6 0-124.1-55.5-124.1-124.1 0-68.6 55.5-124.1 124.1-124.1zm0 0c68.6 0 124.1 55.5 124.1 124.1 0 68.6-55.5 124.1-124.1 124.1-68.6 0-124.1-55.5-124.1-124.1 0-68.6 55.5-124.1 124.1-124.1zm0 0c68.6 0 124.1 55.5 124.1 124.1 0 68.6-55.5 124.1-124.1 124.1-68.6 0-124.1-55.5-124.1-124.1 0-68.6 55.5-124.1 124.1-124.1z"/>
	<path id="EyeL copy" class="s0" d="m299.8 386c79.5 0 143.7 64.3 143.7 143.8 0 79.5-64.2 143.7-143.7 143.7-79.5 0-143.8-64.2-143.8-143.7 0-79.5 64.3-143.8 143.8-143.8zm0 0c79.5 0 143.7 64.3 143.7 143.8 0 79.5-64.2 143.7-143.7 143.7-79.5 0-143.8-64.2-143.8-143.7 0-79.5 64.3-143.8 143.8-143.8zm0 0c79.5 0 143.7 64.3 143.7 143.8 0 79.5-64.2 143.7-143.7 143.7-79.5 0-143.8-64.2-143.8-143.7 0-79.5 64.3-143.8 143.8-143.8z"/>
	<path id="EyeL" class="s2" d="m324.1 386c68.6 0 124.1 55.5 124.1 124.1 0 68.6-55.5 124.1-124.1 124.1-68.6 0-124.1-55.5-124.1-124.1 0-68.6 55.5-124.1 124.1-124.1zm0 0c68.6 0 124.1 55.5 124.1 124.1 0 68.6-55.5 124.1-124.1 124.1-68.6 0-124.1-55.5-124.1-124.1 0-68.6 55.5-124.1 124.1-124.1zm0 0c68.6 0 124.1 55.5 124.1 124.1 0 68.6-55.5 124.1-124.1 124.1-68.6 0-124.1-55.5-124.1-124.1 0-68.6 55.5-124.1 124.1-124.1z"/>
</svg>